<?xml version="1.0" encoding="UTF-8"?>
<!DOCTYPE svg PUBLIC "-//W3C//DTD SVG 1.1//EN" "http://www.w3.org/Graphics/SVG/1.1/DTD/svg11.dtd">
<!-- Creator: CorelDRAW 2020 (64-Bit) -->
<svg xmlns="http://www.w3.org/2000/svg" xml:space="preserve" width="0.7534mm" height="0.7815mm" version="1.1" style="shape-rendering:geometricPrecision; text-rendering:geometricPrecision; image-rendering:optimizeQuality; fill-rule:evenodd; clip-rule:evenodd"
viewBox="0 0 0.2 0.21"
 xmlns:xlink="http://www.w3.org/1999/xlink"
 xmlns:xodm="http://www.corel.com/coreldraw/odm/2003">
 <defs>
  <style type="text/css">
   <![CDATA[
    .fil0 {fill:#727271}
   ]]>
  </style>
 </defs>
 <g id="Слой_x0020_1">
  <metadata id="CorelCorpID_0Corel-Layer"/>
  <path class="fil0" d="M0.19 0.08c0,0 0,0.1 0,0.1 0,0 0,0.01 -0,0.01 -0,0 -0,0 -0.01,0.01 -0,0 -0,0 -0.01,0 -0.02,0 -0.05,0 -0.07,-0 -0.02,-0 -0.03,-0 -0.05,-0l-0.02 0c-0,0 -0,0 -0.01,-0 -0,-0 -0,-0 -0.01,-0.01 -0,-0 -0,-0.01 -0,-0.01 0,-0 -0,-0.1 0,-0.1l0.17 0zm-0.08 -0.08l-0 0c-0,0 -0,0 -0,0 -0,0 -0,0 -0,0 -0,0 -0,0 -0,0 -0,0 -0,0.02 0,0.02 0,0.01 0.01,0.01 0.01,-0 0,-0 0,-0.02 0,-0.02 -0,-0 -0,-0 -0,-0 -0,-0 -0,-0 -0,-0 -0,-0 -0,-0 -0,-0zm-0.05 0l-0 0c-0,0 -0,0 -0,0l-0 0c-0,0 -0,0 -0,0.01 -0,0 -0,0.02 0,0.02 0,0 0,0 0,0 0,0 0,0 0,0 0,-0 0.01,-0 0.01,-0.01 0,-0 0,-0.02 0,-0.03 -0,-0.01 -0,-0.01 -0.01,-0.01zm0.11 0l-0 0c-0,0 -0.01,0 -0.01,0.01 -0,0 -0,0.02 0,0.02 0,0.01 0.01,0.01 0.01,0 0,-0 0,-0.02 0,-0.02 -0,-0.01 -0,-0.01 -0.01,-0.01zm-0.08 0.11l0.01 -0c0.01,-0 0.01,-0 0.01,-0.01 0,-0 0,-0.01 -0,-0.01 -0,-0 -0.01,-0 -0.01,-0 -0.01,0 -0.01,-0 -0.01,0.01 -0,0.01 0,0.01 0.01,0.01zm0.03 0.02c0,0 -0,0.01 0,0.01 0,0 0.01,0 0.01,0 0,0 0.01,0 0.01,-0 0,-0 0,-0 0,-0 0,-0 0,-0 0,-0.01 0,-0.01 -0,-0.01 -0.01,-0.01l-0.01 -0c-0,0 -0.01,-0 -0.01,0 -0,0 -0,0 -0,0.01zm-0.08 0.03c0,0.01 0,0.01 0.01,0.01 0,0 0.02,0 0.02,-0 0,-0 0,-0 0,-0.01 0,-0.02 -0,-0.02 -0.02,-0.02 -0.01,0 -0.01,-0 -0.01,0.01zm0.04 -0c0,0.01 0,0.01 0.01,0.01 0,0 0,0 0.01,0 0,0 0.01,0 0.01,-0 0,-0 0,-0 0,-0.01 0,-0 0,-0.01 -0,-0.01 -0,-0 -0.01,-0 -0.01,-0 -0.01,0 -0.02,-0 -0.02,0.01zm0.04 -0.06c0,0 -0,0.01 0,0.01 0,0 0.01,0 0.01,0 0.01,0 0.02,0 0.02,-0.01 0,-0.01 -0,-0.01 -0.02,-0.01 -0,0 -0.01,-0 -0.01,0 -0,0 -0,0 -0,0.01zm0.04 0c0,0.01 0,0.01 0.02,0.01 0,0 0.01,-0 0.01,-0 0,-0 0,-0.01 0,-0.01 0,-0.01 -0.01,-0.01 -0.02,-0.01 -0.01,0 -0.01,-0 -0.01,0.01zm0.01 0.02c-0,0 -0,0 -0,0 -0,0 -0,0 -0,0 -0,0 -0,0.01 0,0.01 0,0 0.01,0 0.01,0 0,0 0.01,0 0.01,-0 0,-0 0.01,-0 0.01,-0.01 0,-0 0,-0.01 -0,-0.01 -0,-0 -0,-0 -0,-0 -0,-0 -0.02,-0 -0.02,-0zm-0.12 0c-0.01,0 -0.01,0.02 -0,0.02 0,0 0.01,0 0.01,0 0.01,0 0.01,0 0.02,-0 0,-0 0,-0.01 0,-0.02 -0,-0 -0.01,-0 -0.01,-0 -0,-0 -0.01,-0 -0.01,0zm0.04 0c-0,0 -0.01,0 -0.01,0.01 -0,0.01 0,0.01 0.01,0.01 0.01,0 0.02,0 0.02,-0.01 0,-0.01 0,-0.01 -0,-0.01 -0,-0 -0,-0 -0.01,-0 -0,-0 -0.01,-0 -0.01,0zm0.03 0.04c0,0.01 0.01,0.01 0.02,0.01 0,0 0,0 0.01,-0 0.01,-0 0.01,-0.01 0.01,-0.01 -0,-0 -0,-0.01 -0.01,-0.01 -0,-0 -0.01,-0 -0.01,-0 -0,0 -0.01,-0 -0.01,0 -0,0 -0,0 -0,0 -0,0 -0,0 0,0.01zm-0.07 -0.15c-0,-0 -0.01,0 -0.02,0 -0,0 -0.01,0 -0.01,0.01 -0,0 -0.01,0.01 -0.01,0.01 -0,0.01 -0,0.01 -0,0.02 -0,0.01 -0,0.02 -0,0.04 0,0.01 0,0.02 0,0.04 0,0.01 0,0.02 0,0.04 0,0.01 -0,0.03 0,0.03 0,0 0,0.01 0.01,0.01 0,0 0,0 0,0 0,0 0,0 0.01,0.01 0.01,0 0.01,0 0.02,0 0.01,0 0.02,0 0.04,0l0.04 0c0.02,0 0.04,0 0.06,-0 0.01,-0 0.01,0 0.01,-0 0.01,-0 0.01,-0.01 0.02,-0.02 0,-0 0,-0.01 0,-0.02l0 -0.12c0,-0.01 0,-0.02 -0.01,-0.03l-0 -0c-0.01,-0 -0.01,-0.01 -0.02,-0.01l0 0c-0,0.01 0,0.01 -0,0.02 -0,0 -0.01,0.01 -0.01,0 -0,-0 -0,-0 -0,-0 -0,-0 -0,-0 -0,-0 -0,-0 -0,-0 -0,-0 -0,-0 -0,-0.01 -0,-0.01 -0,-0 -0,-0.01 -0,-0.01 -0.01,-0 -0.02,0 -0.02,-0 0,0.01 0,0.02 -0,0.02 -0,0.01 -0.01,0.01 -0.01,0.01 -0.01,-0 -0.01,-0 -0.01,-0.01 -0,-0 -0,-0.02 -0,-0.02l-0.02 -0c0,0 0,0.02 -0,0.02 -0,0 -0,0 -0.01,0.01 -0,0 -0,0 -0.01,0 -0,0 -0.01,-0 -0.01,-0 -0,-0 -0,-0 -0.01,-0.01 -0,-0 -0,-0.01 -0,-0.01 -0,-0 0,-0.01 -0,-0.01z"/>
 </g>
</svg>
