<?xml version="1.0" encoding="UTF-8"?>
<!DOCTYPE svg PUBLIC "-//W3C//DTD SVG 1.1//EN" "http://www.w3.org/Graphics/SVG/1.1/DTD/svg11.dtd">
<!-- Creator: CorelDRAW 2021 (64-Bit) -->
<svg xmlns="http://www.w3.org/2000/svg" xml:space="preserve" width="1.2585mm" height="1.3171mm" version="1.1" style="shape-rendering:geometricPrecision; text-rendering:geometricPrecision; image-rendering:optimizeQuality; fill-rule:evenodd; clip-rule:evenodd"
viewBox="0 0 1.37 1.43"
 xmlns:xlink="http://www.w3.org/1999/xlink"
 xmlns:xodm="http://www.corel.com/coreldraw/odm/2003">
 <defs>
  <style type="text/css">
   <![CDATA[
    .fil0 {fill:#727271}
   ]]>
  </style>
 </defs>
 <g id="Слой_x0020_1">
  <metadata id="CorelCorpID_0Corel-Layer"/>
  <path class="fil0" d="M1.25 0.52c0,0.01 0,0.65 0,0.66 0,0.03 0,0.04 -0.02,0.07 -0.01,0.02 -0.03,0.03 -0.05,0.04 -0.02,0.01 -0.02,0.01 -0.04,0.01 -0.16,0 -0.31,0 -0.46,-0 -0.12,-0 -0.21,-0 -0.33,-0l-0.13 0c-0.02,0 -0.03,0 -0.04,-0 -0.02,-0.01 -0.03,-0.02 -0.05,-0.04 -0.02,-0.03 -0.02,-0.04 -0.02,-0.07 0,-0.01 -0,-0.65 0,-0.66l1.13 0zm-0.97 0.09l0.25 0c0.03,0 0.06,0.03 0.06,0.06l0 0.25c0,0.03 -0.03,0.06 -0.06,0.06l-0.25 0c-0.03,0 -0.06,-0.02 -0.06,-0.06l0 -0.25c0,-0.03 0.02,-0.06 0.06,-0.06zm1.09 -0.36c0,-0.04 -0.03,-0.08 -0.07,-0.09l-0 -0 -0 0 -0.01 -0 -0.14 0 0 -0.08c0,-0.04 -0.03,-0.08 -0.08,-0.08 -0.04,0 -0.08,0.03 -0.08,0.08l0 0.08 -0.21 0 0 -0.08c0,-0.04 -0.03,-0.08 -0.08,-0.08 -0.04,0 -0.08,0.03 -0.08,0.08l0 0.08 -0.22 0 0 -0.08c0,-0.04 -0.03,-0.08 -0.08,-0.08 -0.04,0 -0.08,0.03 -0.08,0.08l0 0.08 -0.18 0 -0.01 0 -0.01 0 -0 0c-0.04,0.01 -0.07,0.04 -0.07,0.09 0,0.11 0,0.22 0,0.33 0,0.08 0,0.16 0,0.24 0,0.08 0,0.16 0,0.24 0,0.05 -0,0.19 0.01,0.23 0.01,0.02 0.03,0.06 0.04,0.08 0.01,0.01 0.01,0.01 0.02,0.01 0.02,0.02 0.03,0.02 0.05,0.03 0.03,0.02 0.06,0.01 0.11,0.01 0.08,0 0.16,0 0.24,0l0.27 0c0.13,0 0.27,0 0.4,-0 0.04,-0 0.06,0 0.1,-0.02 0.05,-0.02 0.09,-0.07 0.11,-0.12 0.01,-0.03 0.01,-0.08 0.01,-0.11 0,-0.31 0,-0.62 0,-0.94z"/>
 </g>
</svg>
