<?xml version="1.0" encoding="UTF-8"?>
<!DOCTYPE svg PUBLIC "-//W3C//DTD SVG 1.1//EN" "http://www.w3.org/Graphics/SVG/1.1/DTD/svg11.dtd">
<!-- Creator: CorelDRAW 2021 (64-Bit) -->
<svg xmlns="http://www.w3.org/2000/svg" xml:space="preserve" width="81.2928mm" height="109.762mm" version="1.1" style="shape-rendering:geometricPrecision; text-rendering:geometricPrecision; image-rendering:optimizeQuality; fill-rule:evenodd; clip-rule:evenodd"
viewBox="0 0 950.12 1282.85"
 xmlns:xlink="http://www.w3.org/1999/xlink"
 xmlns:xodm="http://www.corel.com/coreldraw/odm/2003">
 <defs>
  <style type="text/css">
   <![CDATA[
    .fil2 {fill:#3E60A9}
    .fil0 {fill:#489BCD}
    .fil1 {fill:#9ACC48}
   ]]>
  </style>
 </defs>
 <g id="Слой_x0020_1">
  <metadata id="CorelCorpID_0Corel-Layer"/>
  <g id="_2640236535680">
   <path class="fil0" d="M567.05 418.9c119.28,-133.42 90.14,-331.91 -69.22,-418.9 24.6,418.9 -585.45,451.01 -487.09,931.56 13.66,-53.23 44.59,-103.04 85.56,-146.12 94.71,-99.66 208.52,-160.45 317.78,-243.23 47.34,-35.45 97.4,-73.46 141.12,-113.16 4.54,-2.55 8.19,-6.76 11.83,-10.15l0 0z"/>
   <path class="fil1" d="M706.35 309.13c-26.42,89.51 -55.53,129.21 -253.11,278.68 -108.37,81.92 -216.71,138.5 -310.49,236.49 -235.84,246.58 110.16,497.44 408.82,453.5 -38.26,-27.86 -67.36,-67.56 -84.67,-119.92 -22.77,-70.08 -22.77,-157.93 -0.93,-228.87 20.02,-64.18 54.63,-121.62 94.71,-176.5 24.57,-33.79 48.24,-67.56 71.91,-101.35 74.66,-109.78 107.44,-211.99 73.76,-342.03l-0 0z"/>
   <path class="fil2" d="M652.52 943.26c20.2,-45.65 55.68,-66.87 100.41,-21.28l190.34 69.32c-21.46,-108.35 -43.23,-113.24 -101.33,-220.94 -28.34,-52.53 -61.25,-117.66 -96.94,-201.96 -7.81,68.83 -22.27,81.25 -73.84,165.98 -26.81,34.75 -149.17,189.28 -157.64,269.6l138.99 -60.72z"/>
   <path class="fil2" d="M507.88 1054.46l0 28.18c0,111.86 94.74,198.01 212.58,198.01 60.62,0 92.2,-14.9 122.07,-45.55l0 33.97 107.58 0 0 -234.48 -192.1 0 0 90.32 58.06 0c-2.55,26.52 -45.26,50.53 -76,50.53 -65.71,0 -90.49,-53.85 -90.49,-118.47 0,-53.03 20.48,-121.81 72.58,-121.81l23.03 0c29.03,0 58.9,28.18 61.48,53.85l136.58 0c0,-79.52 -95.61,-158.22 -180.97,-158.23l-45.22 0c1.65,-4.33 3.09,-8.73 4.26,-13.24 19.1,-74.32 37.33,-154.55 23.67,-249.13 -19.13,43.91 -39.15,76.84 -62.85,111.47 -24.57,35.48 -47.34,67.56 -72.83,102.18 -30.96,43.08 -67.36,97.97 -86.49,161.31 -7.05,23.55 -11,49.62 -12.54,76.26l0.01 -0c-1.59,11.39 -2.43,23.02 -2.43,34.84l-0 0z"/>
  </g>
 </g>
</svg>
