<?xml version="1.0" encoding="UTF-8"?>
<!DOCTYPE svg PUBLIC "-//W3C//DTD SVG 1.1//EN" "http://www.w3.org/Graphics/SVG/1.1/DTD/svg11.dtd">
<!-- Creator: CorelDRAW 2020 (64-Bit) -->
<svg xmlns="http://www.w3.org/2000/svg" xml:space="preserve" width="1.6639mm" height="1.6639mm" version="1.1" style="shape-rendering:geometricPrecision; text-rendering:geometricPrecision; image-rendering:optimizeQuality; fill-rule:evenodd; clip-rule:evenodd"
viewBox="0 0 165.05 165.05"
 xmlns:xlink="http://www.w3.org/1999/xlink"
 xmlns:xodm="http://www.corel.com/coreldraw/odm/2003">
 <defs>
  <style type="text/css">
   <![CDATA[
    .fil0 {fill:#FEFEFE}
   ]]>
  </style>
 </defs>
 <g id="Слой_x0020_1">
  <metadata id="CorelCorpID_0Corel-Layer"/>
  <path class="fil0" d="M82.53 0c45.57,0 82.52,36.95 82.52,82.53 0,45.57 -36.95,82.52 -82.52,82.52 -45.58,0 -82.53,-36.95 -82.53,-82.52 0,-45.58 36.95,-82.53 82.53,-82.53zm-46.31 106.06c0,-1.1 -0.16,-45.62 0,-46.76 0.07,-0.54 0.25,-0.56 0.54,-0.98 46.33,33.66 0,0 46.33,33.66 43.94,-32.4 0,0 43.94,-32.4l1.41 -1.13c0.18,0.2 0.37,0.39 0.55,0.57l0 47.05c-0.9,-0.71 -22.02,-22.09 -24.45,-24.55 -0.85,-0.85 -1.62,-0.52 -2.55,0.2 -0.71,0.54 -1.53,1.08 -2.15,1.65 -2.15,1.98 -2.98,1.23 -0.71,3.43 7.48,7.52 16.5,17.72 24.12,24.47 -2.33,1.28 -80.69,0.34 -81.29,0 7.54,-7.79 15.02,-15.72 22.92,-23.14 1.04,-0.97 1.17,-1.55 2.55,-2.35l0.02 -0.83 -3.66 -2.81c-0.77,-0.75 -2.02,-1.71 -3.12,-0.62 -7.61,7.4 -15.03,15.16 -22.46,22.75 -0.39,0.43 -1.59,1.69 -1.98,1.81zm46.31 -22.4c-11.15,-6.49 -27.63,-20.54 -37.34,-28.15 -2.46,-1.93 -3.78,-2.09 -0.27,-2.09l72.24 0c6.66,0 5.89,-0.41 3.73,1.29 -9.22,7.16 -36.3,28.46 -38.37,28.96zm-53.92 -27.12l0 51.98c0.19,6.03 5.26,9.79 11.44,9.73l85.11 0c8.27,-0.14 11.22,-2.97 11.44,-9.73l0 -51.98c0.01,-6.47 -3.2,-9.58 -11.44,-9.72l-82.72 -0.03c-13.74,-0.09 -14.04,4.42 -13.83,9.75z"/>
 </g>
</svg>
