<?xml version="1.0" encoding="UTF-8"?>
<!DOCTYPE svg PUBLIC "-//W3C//DTD SVG 1.1//EN" "http://www.w3.org/Graphics/SVG/1.1/DTD/svg11.dtd">
<!-- Creator: CorelDRAW 2020 (64-Bit) -->
<svg xmlns="http://www.w3.org/2000/svg" xml:space="preserve" width="1.8626mm" height="1.8626mm" version="1.1" style="shape-rendering:geometricPrecision; text-rendering:geometricPrecision; image-rendering:optimizeQuality; fill-rule:evenodd; clip-rule:evenodd"
viewBox="0 0 186.26 186.26"
 xmlns:xlink="http://www.w3.org/1999/xlink"
 xmlns:xodm="http://www.corel.com/coreldraw/odm/2003">
 <defs>
  <style type="text/css">
   <![CDATA[
    .fil0 {fill:#FEFEFE}
   ]]>
  </style>
 </defs>
 <g id="Слой_x0020_1">
  <metadata id="CorelCorpID_0Corel-Layer"/>
  <path class="fil0" d="M93.02 7.6c45.93,0 83.16,37.23 83.16,83.16 0,45.93 -37.23,83.16 -83.16,83.16 -45.93,0 -83.16,-37.23 -83.16,-83.16 0,-45.93 37.23,-83.16 83.16,-83.16zm-38.72 64.7c0,6.15 1.39,12 4.14,17.48 4.32,7.32 33.74,54.68 34.53,58.05l0.13 0c0.84,-3.54 29.62,-49.72 33.9,-56.82 6.66,-11.05 6.05,-26.72 -0.28,-37.77 -3.98,-6.93 -10.42,-12.97 -17.77,-16.13 -9.18,-3.95 -18.76,-4.57 -28.35,-1.37 -5.17,1.72 -9.11,4.43 -13.36,7.78 -2.08,2.03 -3.1,2.95 -4.94,5.31 -5.16,6.6 -8,15.1 -8,23.47zm38.72 -16.32c9.42,0 17.05,7.64 17.05,17.05 0,9.42 -7.63,17.06 -17.05,17.06 -9.42,0 -17.05,-7.64 -17.05,-17.06 0,-9.41 7.63,-17.05 17.05,-17.05z"/>
 </g>
</svg>
