<?xml version="1.0" encoding="UTF-8"?>
<!DOCTYPE svg PUBLIC "-//W3C//DTD SVG 1.1//EN" "http://www.w3.org/Graphics/SVG/1.1/DTD/svg11.dtd">
<!-- Creator: CorelDRAW 2020 (64-Bit) -->
<svg xmlns="http://www.w3.org/2000/svg" xml:space="preserve" width="1.6632mm" height="1.6632mm" version="1.1" style="shape-rendering:geometricPrecision; text-rendering:geometricPrecision; image-rendering:optimizeQuality; fill-rule:evenodd; clip-rule:evenodd"
viewBox="0 0 163.26 163.26"
 xmlns:xlink="http://www.w3.org/1999/xlink"
 xmlns:xodm="http://www.corel.com/coreldraw/odm/2003">
 <defs>
  <style type="text/css">
   <![CDATA[
    .fil0 {fill:#FEFEFE}
   ]]>
  </style>
 </defs>
 <g id="Слой_x0020_1">
  <metadata id="CorelCorpID_0Corel-Layer"/>
  <path class="fil0" d="M81.64 0c45.07,0 81.62,36.54 81.62,81.62 0,45.08 -36.54,81.64 -81.62,81.64 -45.09,0 -81.64,-36.55 -81.64,-81.64 0,-45.07 36.54,-81.62 81.64,-81.62zm-10.47 56.59c0.57,-3.7 -1.24,-8.03 -2.65,-10.72 -2.13,-4.08 -2.93,-4.71 -5.34,-8.15 -0.28,-0.39 -0.39,-0.58 -0.74,-0.98l-2.3 -2.72c-2.61,-3.11 -6.42,-2.81 -9.75,-1.09 -1.3,0.67 -2.01,1.2 -3.05,2.08 -4.69,4.02 -9.23,9.27 -11.58,16.95 -2.4,7.85 -1.62,16 0.71,23.48 1.11,3.58 2.6,6.38 4.06,9.54 2.49,5.35 5.67,9.63 9.46,14.18l1.5 1.81c1.37,1.66 4.84,5.79 6.25,7.22l8.32 8.58c3.06,2.51 4.06,3.57 7.62,5.86 2.59,1.7 3.45,2.17 6.35,3.7 2.9,1.54 6.23,2.76 9.67,3.79 7.88,2.39 15.77,1.82 22.71,-1.52 3.86,-1.85 5.23,-2.89 8.23,-5.22 1.65,-1.3 5.4,-4.9 6.23,-7.25 1.47,-4.17 -1.77,-7.53 -3.5,-9.24 -1.66,-1.67 -5.19,-4.69 -7.23,-6.23 -2.42,-1.85 -5.52,-4.4 -8.46,-5.01 -4.13,-0.87 -7.7,1.08 -10.06,2.98 -3.13,2.53 -4.23,5.17 -7.23,6.36 -3.83,1.53 -7.81,-0.39 -10.14,-2.14 -0.7,-0.54 -1.22,-1.13 -1.82,-1.61 -5.4,-4.45 -8.98,-8.36 -13.12,-13.84 -0.51,-0.66 -0.9,-1.25 -1.37,-1.92 -2.55,-3.59 -6.61,-9.79 -5.23,-14.37 1.04,-3.44 4.3,-4.85 6.61,-6.87 2.72,-2.37 5.27,-3.88 5.86,-7.66zm50.94 30.3l6.8 -0.11c0.17,-0.48 -0.03,-1.92 -0.2,-2.31 0.03,-4.68 -2.62,-13.63 -4.71,-17.9 -1.73,-3.5 -4.12,-7.38 -6.83,-10.22l-4.37 -4.17c-3.16,-2.74 -8.63,-5.75 -12.53,-7.32 -5.19,-2.06 -12.62,-3.93 -18.85,-3.94 -0.06,1.41 -0.18,8.26 0.06,9.24 12.17,0.57 21.78,3.97 29.4,12.76 5.07,5.9 8.86,15.89 9.07,23.9l2.16 0.07zm-40.26 -18.34c1.46,0.21 2.84,0.14 4.35,0.42 5.23,0.93 8.85,3.31 11.75,7.35 2.09,2.93 3.44,6.94 3.71,10.76l9.02 0.01c-0.39,-8.42 -4.42,-15.79 -8.56,-19.71 -2.23,-2.1 -5.05,-4.09 -8.56,-5.51 -3.48,-1.41 -7.62,-2.44 -11.77,-2.44l0.06 9.12z"/>
 </g>
</svg>
