<?xml version="1.0" encoding="UTF-8"?>
<!DOCTYPE svg PUBLIC "-//W3C//DTD SVG 1.1//EN" "http://www.w3.org/Graphics/SVG/1.1/DTD/svg11.dtd">
<!-- Creator: CorelDRAW 2021 (64-Bit) -->
<svg xmlns="http://www.w3.org/2000/svg" xml:space="preserve" width="170.529mm" height="141.552mm" version="1.1" style="shape-rendering:geometricPrecision; text-rendering:geometricPrecision; image-rendering:optimizeQuality; fill-rule:evenodd; clip-rule:evenodd"
viewBox="0 0 17052.66 14155"
 xmlns:xlink="http://www.w3.org/1999/xlink"
 xmlns:xodm="http://www.corel.com/coreldraw/odm/2003">
 <defs>
  <style type="text/css">
   <![CDATA[
    .fil2 {fill:#3E60A9}
    .fil0 {fill:#489BCD}
    .fil1 {fill:#9ACC48}
   ]]>
  </style>
 </defs>
 <g id="Слой_x0020_1">
  <metadata id="CorelCorpID_0Corel-Layer"/>
  <path class="fil0" d="M4853.34 3864.01c1020.53,-1230.72 771.22,-3061.59 -592.22,-3864.01 210.45,3864.01 -5009.06,4160.12 -4167.52,8592.82 116.86,-490.96 381.51,-950.46 732.09,-1347.84 810.35,-919.28 1784.08,-1480.04 2718.95,-2243.58 405.04,-327.04 833.35,-677.62 1207.45,-1043.79 38.87,-23.53 70.06,-62.4 101.26,-93.59l0 -0.01z"/>
  <path class="fil1" d="M6045.19 2851.41c-226.05,825.68 -475.1,1191.85 -2165.59,2570.63 -927.21,755.62 -1854.14,1277.52 -2656.56,2181.46 -2017.8,2274.51 942.54,4588.43 3497.83,4183.12 -327.31,-256.99 -576.36,-623.16 -724.42,-1106.19 -194.86,-646.42 -194.86,-1456.77 -7.93,-2111.13 171.33,-591.96 467.43,-1121.79 810.35,-1628.09 210.19,-311.72 412.7,-623.16 615.23,-934.88 638.76,-1012.6 919.28,-1955.4 631.09,-3154.92l-0.01 0z"/>
  <path class="fil2" d="M17052.66 14092.6l-7.67 0 7.67 0zm-7.67 0l-1449.1 0 0 -381.77 771.22 -848.95 -740.02 0 0 -374.1 1386.71 0 0 374.1 -786.82 864.55 818.01 0 0 366.17zm-2235.91 -553.1l-171.33 -591.96 -163.66 591.96 334.97 0 0.01 0zm-490.7 553.1l-514.23 0 576.63 -1612.49 537.5 0 576.36 1612.49 -529.56 0 -62.4 -210.45 -529.83 0 -54.46 210.45 -0.01 0zm-693.22 -888.08l0 888.08 -397.37 -7.67 0 -124.79c-46.8,54.73 -101.26,101.26 -163.66,124.79 -70.06,31.2 -171.33,46.8 -288.19,46.8 -218.12,0 -405.04,-70.33 -545.43,-202.52 -155.73,-148.06 -233.72,-358.5 -233.72,-623.42 0,-256.99 78,-467.43 226.05,-630.83 155.73,-163.66 358.24,-241.65 615.49,-241.65 202.52,0 365.91,46.8 498.37,148.06 140.39,108.93 233.72,256.99 264.92,444.17l-498.37 -0.26c-39.13,-132.2 -132.46,-202.52 -272.85,-202.52 -101.26,0 -178.99,39.13 -225.79,124.79 -54.73,85.66 -78,202.52 -78,342.64 0,132.46 23.27,233.72 70.06,303.78 54.73,85.93 148.06,132.46 272.85,132.46 54.46,0 116.86,-15.6 171.33,-54.46 54.46,-31.2 85.66,-78 101.26,-132.46l-218.12 0 0 -350.57 701.15 0 0 15.6 0.02 -0.02zm-2516.43 561.03c70.33,0 124.79,-7.93 163.66,-31.2 38.87,-23.53 54.46,-46.8 54.46,-85.66 0,-62.4 -77.73,-109.19 -241.39,-148.06 -226.05,-54.73 -373.84,-101.26 -444.17,-140.39 -163.39,-85.66 -241.39,-218.12 -241.39,-397.1 0,-163.66 62.4,-296.12 194.86,-381.77 124.53,-85.66 295.85,-132.46 506.3,-132.46 210.19,0 373.84,46.8 498.63,148.06 108.93,85.66 171.33,210.19 194.59,366.17l-498.37 0c-15.6,-46.8 -46.8,-85.93 -93.59,-109.19 -38.87,-15.6 -78,-23.27 -116.86,-23.27 -108.93,0 -171.33,31.2 -171.33,93.33 0,62.4 77.73,109.19 241.39,155.99 226.05,54.46 374.1,108.93 444.17,140.13 163.66,85.66 241.39,210.45 241.39,381.77 0,178.99 -70.06,319.37 -210.19,412.7 -132.46,93.59 -319.37,140.39 -545.43,140.39 -210.45,0 -381.77,-54.46 -514.23,-155.99 -132.46,-101.26 -202.52,-233.46 -202.52,-381.51l506.3 0c15.6,54.46 54.73,93.33 109.19,132.46 46.8,0 85.66,15.6 124.53,15.6zm-2033.13 -1285.45l576.36 880.15 -23.27 -366.17 0 -513.97 506.3 0 0 1612.49 -498.63 0 -576.36 -880.15 23.27 365.91 0 514.23 -506.3 0 0 -1612.49 498.63 0zm-1355.51 1059.39l-171.33 -591.96 -163.66 591.96 334.97 0 0.01 0zm-490.7 553.1l-514.23 0 576.36 -1612.49 537.76 0 576.36 1612.49 -529.83 0 -62.13 -210.45 -529.83 0 -54.46 210.45zm-1620.42 -1238.65l0 319.37 210.19 0c85.93,0 148.06,-7.67 187.19,-31.2 38.87,-23.27 62.13,-62.13 62.13,-116.86 0,-54.46 -23.27,-93.33 -62.13,-124.53 -39.13,-31.2 -93.59,-46.8 -155.99,-46.8l-241.39 0 0 0.01zm163.66 677.89l-0.03 0 -163.63 0 0 560.76 -529.83 0 0 -1612.49 763.55 0c264.92,0 443.9,38.87 560.76,108.93 101.26,70.06 155.99,186.92 155.99,350.57 0,93.59 -23.53,179.26 -62.4,249.32 -46.8,70.06 -116.86,124.79 -202.52,148.06 101.26,38.87 171.33,78 202.52,116.86 46.8,62.4 70.06,163.66 70.06,311.72 0,62.13 0,124.53 0,178.99 0,70.06 23.53,101.26 54.46,101.26l0 46.8 -537.5 0c-15.6,-46.8 -23.27,-140.13 -23.27,-280.52 0,-108.93 -15.6,-186.92 -46.8,-218.12 -46.8,-46.53 -124.52,-62.13 -241.36,-62.13zm-2376.04 -631.1l0 -420.64 1480.04 0 0 420.64 -475.1 0 0 1191.85 -529.83 0 0 -1191.85 -475.1 0zm-148.06 1191.86l-7.67 0 7.67 0zm-7.67 0l-1449.1 0 0 -381.77 771.22 -848.95 -740.02 0 0 -374.1 1386.71 0 0 374.1 -786.82 864.55 818.01 0 0 366.17zm-3240.85 -701.16l0 -911.34 529.83 0 0 965.8c0,93.59 15.6,163.66 38.87,210.45 38.87,54.46 108.93,85.66 202.52,85.66 93.33,0 155.73,-23.27 194.86,-77.73 30.93,-46.8 54.46,-116.86 54.46,-218.12l0 -966.06 529.56 0 0 911.34c0,257.25 -62.13,444.17 -186.92,561.03 -124.53,116.86 -319.37,178.99 -591.96,178.99 -256.99,0 -451.83,-54.46 -576.36,-163.39 -124.79,-116.86 -194.86,-311.72 -194.86,-576.63zm4463.64 -2851.13c257.25,841.28 911.61,1285.45 2025.47,1285.45l54.73 0c1043.79,0 1807.34,-561.03 1807.34,-1597.15l0 -2523.83 -1301.05 0 0 2282.44c0,389.44 -85.66,825.68 -451.83,825.68l-319.37 0c-288.19,0 -475.1,-420.64 -475.1,-740.02l0 -373.84c0,-553.1 186.92,-1480.3 350.57,-2157.93 163.39,-685.55 319.37,-1425.57 202.52,-2298.04 -163.66,405.04 -334.97,708.82 -537.76,1028.2 -210.19,327.31 -405.04,623.16 -623.16,942.54 -264.92,397.37 -576.36,903.68 -740.02,1487.97 -155.73,561.03 -155.73,1277.52 7.67,1838.54zm8546.02 -833.62l0 264.92c0,1051.73 864.55,1861.81 1939.8,1861.81 553.1,0 841.28,-140.13 1113.86,-428.3l0 319.37 981.66 0 0 -2204.72 -1752.88 0 0 849.21 529.83 0c-23.27,249.32 -412.97,475.1 -693.49,475.1 -599.63,0 -825.68,-506.3 -825.68,-1113.86 0,-498.63 186.92,-1145.32 662.29,-1145.32l210.19 0c264.92,0 537.5,264.92 561.03,506.3l1246.32 0c0,-747.69 -872.48,-1487.71 -1651.35,-1487.71l-451.83 0c-1082.92,0 -1869.74,965.8 -1869.74,2103.2l-0.01 0zm-4066.53 -958.13l1168.59 0 0 2975.93 1324.31 0 0 -2975.93 1176.25 0 0 -1036.13 -3669.15 0 0 1036.13z"/>
 </g>
</svg>
