<?xml version="1.0" encoding="UTF-8"?>
<!DOCTYPE svg PUBLIC "-//W3C//DTD SVG 1.1//EN" "http://www.w3.org/Graphics/SVG/1.1/DTD/svg11.dtd">
<!-- Creator: CorelDRAW 2021 (64-Bit) -->
<svg xmlns="http://www.w3.org/2000/svg" xml:space="preserve" width="170.529mm" height="141.552mm" version="1.1" style="shape-rendering:geometricPrecision; text-rendering:geometricPrecision; image-rendering:optimizeQuality; fill-rule:evenodd; clip-rule:evenodd"
viewBox="0 0 3883.05 3223.22"
 xmlns:xlink="http://www.w3.org/1999/xlink"
 xmlns:xodm="http://www.corel.com/coreldraw/odm/2003">
 <defs>
  <style type="text/css">
   <![CDATA[
    .fil0 {fill:#FEFEFE}
   ]]>
  </style>
 </defs>
 <g id="Слой_x0020_1">
  <metadata id="CorelCorpID_0Corel-Layer"/>
  <path class="fil0" d="M1105.15 879.87c232.38,-280.25 175.61,-697.15 -134.85,-879.87 47.92,879.87 -1140.61,947.3 -948.98,1956.66 26.61,-111.8 86.87,-216.43 166.7,-306.92 184.52,-209.33 406.25,-337.02 619.13,-510.88 92.23,-74.47 189.76,-154.3 274.95,-237.68 8.85,-5.36 15.95,-14.21 23.06,-21.31l0 -0z"/>
  <path class="fil0" d="M1376.55 649.29c-51.47,188.01 -108.19,271.4 -493.12,585.36 -211.13,172.06 -422.2,290.9 -604.92,496.74 -459.47,517.93 214.62,1044.83 796.49,952.54 -74.53,-58.52 -131.24,-141.9 -164.96,-251.89 -44.37,-147.2 -44.37,-331.72 -1.81,-480.72 39.01,-134.79 106.44,-255.44 184.52,-370.73 47.86,-70.98 93.98,-141.9 140.09,-212.88 145.45,-230.58 209.33,-445.26 143.7,-718.4l-0 0z"/>
  <path class="fil0" d="M3883.05 3209.01l-1.75 0 1.75 0zm-1.75 0l-329.97 0 0 -86.93 175.61 -193.31 -168.51 0 0 -85.19 315.77 0 0 85.19 -179.17 196.87 186.27 0 0 83.38zm-509.14 -125.95l-39.01 -134.79 -37.27 134.79 76.28 0 0 0zm-111.74 125.95l-117.1 0 131.3 -367.18 122.39 0 131.24 367.18 -120.59 0 -14.21 -47.92 -120.65 0 -12.4 47.92 -0 0zm-157.85 -202.22l0 202.22 -90.49 -1.75 0 -28.42c-10.66,12.46 -23.06,23.06 -37.27,28.42 -15.95,7.1 -39.01,10.66 -65.62,10.66 -49.67,0 -92.23,-16.01 -124.2,-46.11 -35.46,-33.71 -53.22,-81.63 -53.22,-141.96 0,-58.52 17.76,-106.44 51.47,-143.65 35.46,-37.27 81.58,-55.03 140.15,-55.03 46.11,0 83.32,10.66 113.48,33.71 31.97,24.8 53.22,58.52 60.32,101.14l-113.48 -0.06c-8.91,-30.1 -30.16,-46.11 -62.13,-46.11 -23.06,0 -40.76,8.91 -51.41,28.42 -12.46,19.51 -17.76,46.11 -17.76,78.02 0,30.16 5.3,53.22 15.95,69.17 12.46,19.57 33.71,30.16 62.13,30.16 12.4,0 26.61,-3.55 39.01,-12.4 12.4,-7.1 19.51,-17.76 23.06,-30.16l-49.67 0 0 -79.83 159.66 0 0 3.55 0 -0zm-573.01 127.75c16.01,0 28.42,-1.81 37.27,-7.1 8.85,-5.36 12.4,-10.66 12.4,-19.51 0,-14.21 -17.7,-24.86 -54.97,-33.71 -51.47,-12.46 -85.13,-23.06 -101.14,-31.97 -37.2,-19.51 -54.97,-49.67 -54.97,-90.42 0,-37.27 14.21,-67.43 44.37,-86.93 28.36,-19.51 67.37,-30.16 115.29,-30.16 47.86,0 85.13,10.66 113.54,33.71 24.8,19.51 39.01,47.86 44.31,83.38l-113.48 0c-3.55,-10.66 -10.66,-19.57 -21.31,-24.86 -8.85,-3.55 -17.76,-5.3 -26.61,-5.3 -24.8,0 -39.01,7.1 -39.01,21.25 0,14.21 17.7,24.86 54.97,35.52 51.47,12.4 85.19,24.8 101.14,31.91 37.27,19.51 54.97,47.92 54.97,86.93 0,40.76 -15.95,72.72 -47.86,93.98 -30.16,21.31 -72.72,31.97 -124.2,31.97 -47.92,0 -86.93,-12.4 -117.1,-35.52 -30.16,-23.06 -46.11,-53.16 -46.11,-86.87l115.29 0c3.55,12.4 12.46,21.25 24.86,30.16 10.66,0 19.51,3.55 28.36,3.55zm-462.96 -292.71l131.24 200.42 -5.3 -83.38 0 -117.04 115.29 0 0 367.18 -113.54 0 -131.24 -200.42 5.3 83.32 0 117.1 -115.29 0 0 -367.18 113.54 0zm-308.66 241.23l-39.01 -134.79 -37.27 134.79 76.28 0 0 0zm-111.74 125.95l-117.1 0 131.24 -367.18 122.45 0 131.24 367.18 -120.65 0 -14.15 -47.92 -120.65 0 -12.4 47.92zm-368.99 -282.05l0 72.72 47.86 0c19.57,0 33.71,-1.75 42.62,-7.1 8.85,-5.3 14.15,-14.15 14.15,-26.61 0,-12.4 -5.3,-21.25 -14.15,-28.36 -8.91,-7.1 -21.31,-10.66 -35.52,-10.66l-54.97 0 0 0zm37.27 154.36l-0.01 0 -37.26 0 0 127.69 -120.65 0 0 -367.18 173.87 0c60.32,0 101.08,8.85 127.69,24.8 23.06,15.95 35.52,42.56 35.52,79.83 0,21.31 -5.36,40.82 -14.21,56.77 -10.66,15.95 -26.61,28.42 -46.11,33.71 23.06,8.85 39.01,17.76 46.11,26.61 10.66,14.21 15.95,37.27 15.95,70.98 0,14.15 0,28.36 0,40.76 0,15.95 5.36,23.06 12.4,23.06l0 10.66 -122.39 0c-3.55,-10.66 -5.3,-31.91 -5.3,-63.88 0,-24.8 -3.55,-42.56 -10.66,-49.67 -10.66,-10.6 -28.35,-14.15 -54.96,-14.15zm-541.05 -143.71l0 -95.78 337.02 0 0 95.78 -108.19 0 0 271.4 -120.65 0 0 -271.4 -108.19 0zm-33.71 271.4l-1.75 0 1.75 0zm-1.75 0l-329.97 0 0 -86.93 175.61 -193.31 -168.51 0 0 -85.19 315.77 0 0 85.19 -179.17 196.87 186.27 0 0 83.38zm-737.97 -159.66l0 -207.52 120.65 0 0 219.92c0,21.31 3.55,37.27 8.85,47.92 8.85,12.4 24.8,19.51 46.11,19.51 21.25,0 35.46,-5.3 44.37,-17.7 7.04,-10.66 12.4,-26.61 12.4,-49.67l0 -219.98 120.59 0 0 207.52c0,58.58 -14.15,101.14 -42.56,127.75 -28.36,26.61 -72.72,40.76 -134.79,40.76 -58.52,0 -102.89,-12.4 -131.24,-37.2 -28.42,-26.61 -44.37,-70.98 -44.37,-131.3zm1016.41 -649.23c58.58,191.57 207.58,292.71 461.22,292.71l12.46 0c237.68,0 411.55,-127.75 411.55,-363.69l0 -574.7 -296.26 0 0 519.73c0,88.68 -19.51,188.01 -102.89,188.01l-72.72 0c-65.62,0 -108.19,-95.78 -108.19,-168.51l0 -85.13c0,-125.95 42.56,-337.08 79.83,-491.38 37.2,-156.11 72.72,-324.61 46.11,-523.29 -37.27,92.23 -76.28,161.4 -122.45,234.13 -47.86,74.53 -92.23,141.9 -141.9,214.62 -60.32,90.49 -131.24,205.78 -168.51,338.82 -35.46,127.75 -35.46,290.9 1.75,418.65zm1946.01 -189.82l0 60.32c0,239.49 196.87,423.95 441.71,423.95 125.95,0 191.57,-31.91 253.64,-97.53l0 72.72 223.53 0 0 -502.03 -399.15 0 0 193.37 120.65 0c-5.3,56.77 -94.04,108.19 -157.91,108.19 -136.54,0 -188.01,-115.29 -188.01,-253.64 0,-113.54 42.56,-260.8 150.81,-260.8l47.86 0c60.32,0 122.39,60.32 127.75,115.29l283.8 0c0,-170.26 -198.67,-338.76 -376.03,-338.76l-102.89 0c-246.59,0 -425.76,219.92 -425.76,478.92l-0 0zm-925.98 -218.18l266.1 0 0 677.65 301.56 0 0 -677.65 267.84 0 0 -235.94 -835.5 0 0 235.94z"/>
 </g>
</svg>
